<svg width="32" height="33" viewBox="0 0 32 33" fill="none" xmlns="http://www.w3.org/2000/svg">
<path d="M22.291 11.3299C22.291 11.9292 21.8042 12.415 21.2037 12.415C20.6032 12.415 20.1164 11.9292 20.1164 11.3299C20.1164 10.7306 20.6032 10.2448 21.2037 10.2448C21.8042 10.2448 22.291 10.7306 22.291 11.3299Z" fill="white"/>
<path d="M11.4179 11.3299C11.4179 11.9292 10.9311 12.415 10.3306 12.415C9.73013 12.415 9.24333 11.9292 9.24333 11.3299C9.24333 10.7306 9.73013 10.2448 10.3306 10.2448C10.9311 10.2448 11.4179 10.7306 11.4179 11.3299Z" fill="white"/>
<path d="M11.4179 24.3513C11.4179 24.9506 10.9311 25.4364 10.3306 25.4364C9.73013 25.4364 9.24333 24.9506 9.24333 24.3513C9.24333 23.752 9.73013 23.2661 10.3306 23.2661C10.9311 23.2661 11.4179 23.752 11.4179 24.3513Z" fill="white"/>
<path d="M16.8545 26.5215C16.8545 27.1208 16.3677 27.6066 15.7672 27.6066C15.1667 27.6066 14.6799 27.1208 14.6799 26.5215C14.6799 25.9222 15.1667 25.4364 15.7672 25.4364C16.3677 25.4364 16.8545 25.9222 16.8545 26.5215Z" fill="white"/>
<path d="M8.15606 17.7749C8.15606 18.3742 7.66925 18.86 7.06875 18.86C6.46825 18.86 5.98145 18.3742 5.98145 17.7749C5.98145 17.1756 6.46825 16.6897 7.06875 16.6897C7.66925 16.6897 8.15606 17.1756 8.15606 17.7749Z" fill="white"/>
<path d="M25.5529 17.7749C25.5529 18.3742 25.0661 18.86 24.4656 18.86C23.8651 18.86 23.3783 18.3742 23.3783 17.7749C23.3783 17.1756 23.8651 16.6897 24.4656 16.6897C25.0661 16.6897 25.5529 17.1756 25.5529 17.7749Z" fill="white"/>
<path d="M22.291 24.3513C22.291 24.9506 21.8042 25.4364 21.2037 25.4364C20.6032 25.4364 20.1164 24.9506 20.1164 24.3513C20.1164 23.752 20.6032 23.2661 21.2037 23.2661C21.8042 23.2661 22.291 23.752 22.291 24.3513Z" fill="white"/>
<path d="M15.0078 9.94092C15.0078 9.50942 15.3576 9.15963 15.7891 9.15963C16.2205 9.15963 16.5703 9.50942 16.5703 9.94092V18.1226C16.5703 18.5661 16.2108 18.9257 15.7672 18.9257C15.3478 18.9257 15.0078 18.5857 15.0078 18.1663V9.94092Z" fill="white"/>
<path fill-rule="evenodd" clip-rule="evenodd" d="M20.921 29.0581C21.3293 28.8622 21.8221 28.9298 22.138 29.2542L23.9639 31.1292C24.2314 31.4039 24.673 31.4039 24.9405 31.1292C25.1982 30.8645 25.1982 30.4427 24.9405 30.1781L23.5838 28.7849C23.1579 28.3475 23.2223 27.6356 23.6815 27.2333C26.3233 24.9195 27.9995 21.4688 27.9995 17.6145C27.9995 10.6477 22.523 5 15.7673 5C9.01169 5 3.53516 10.6477 3.53516 17.6145C3.53516 21.4288 5.1768 24.8477 7.77117 27.1608C8.22389 27.5644 8.2844 28.2708 7.86125 28.7054L6.42708 30.1781C6.16936 30.4427 6.16936 30.8645 6.42707 31.1291C6.69465 31.4039 7.13615 31.4039 7.40372 31.1292L9.28335 29.199C9.60196 28.8718 10.0999 28.8061 10.5097 29.0076C12.1025 29.7907 13.8853 30.229 15.7673 30.229C17.6085 30.229 19.3548 29.8095 20.921 29.0581ZM15.7673 28.8274C21.7724 28.8274 26.6404 23.8072 26.6404 17.6145C26.6404 11.4218 21.7724 6.40161 15.7673 6.40161C9.76232 6.40161 4.89429 11.4218 4.89429 17.6145C4.89429 23.8072 9.76232 28.8274 15.7673 28.8274Z" fill="white"/>
<path d="M14.9995 6V2H16.4995V6H14.9995Z" fill="white"/>
<path d="M7.99951 2.75C7.99951 2.33579 8.3353 2 8.74951 2H22.7495C23.1637 2 23.4995 2.33579 23.4995 2.75C23.4995 3.16421 23.1637 3.5 22.7495 3.5H8.74951C8.3353 3.5 7.99951 3.16421 7.99951 2.75Z" fill="white"/>
</svg>
