<svg width="32" height="33" fill="none" xmlns="http://www.w3.org/2000/svg"><path d="M22.291 11.33a1.086 1.086 0 1 1-2.177-.002 1.086 1.086 0 0 1 2.177.002ZM11.418 11.33a1.086 1.086 0 1 1-2.172-.002 1.086 1.086 0 0 1 2.172.002ZM11.418 24.351a1.086 1.086 0 1 1-2.172-.002 1.086 1.086 0 0 1 2.172.002ZM16.855 26.521c0 .6-.487 1.086-1.088 1.086a1.086 1.086 0 1 1 1.088-1.085ZM8.156 17.775a1.086 1.086 0 1 1-2.177-.002 1.086 1.086 0 0 1 2.177.002ZM25.553 17.775a1.086 1.086 0 1 1-2.177-.002 1.086 1.086 0 0 1 2.177.002ZM22.291 24.351a1.086 1.086 0 1 1-2.177-.002 1.086 1.086 0 0 1 2.177.002ZM15.008 9.94a.781.781 0 0 1 1.562 0v8.183c0 .443-.36.803-.803.803a.76.76 0 0 1-.76-.76V9.941Z" fill="#fff"/><path fill-rule="evenodd" clip-rule="evenodd" d="M20.921 29.058a1.058 1.058 0 0 1 1.217.196l1.826 1.875a.682.682 0 0 0 .977-.95l-1.357-1.394c-.426-.438-.362-1.15.098-1.552C26.322 24.92 28 21.47 28 17.614 28 10.648 22.523 5 15.767 5 9.012 5 3.535 10.648 3.535 17.614c0 3.815 1.642 7.234 4.236 9.547.453.403.513 1.11.09 1.544l-1.434 1.473a.682.682 0 1 0 .977.951l1.88-1.93a1.058 1.058 0 0 1 1.226-.191 11.878 11.878 0 0 0 5.257 1.221c1.841 0 3.588-.42 5.154-1.17Zm-5.154-.23c6.005 0 10.873-5.02 10.873-11.213S21.772 6.402 15.767 6.402c-6.005 0-10.873 5.02-10.873 11.212 0 6.193 4.868 11.213 10.873 11.213Z" fill="#fff"/><path d="M15 6V2h1.5v4H15Z" fill="#fff"/><path d="M8 2.75A.75.75 0 0 1 8.75 2h14a.75.75 0 0 1 0 1.5h-14A.75.75 0 0 1 8 2.75Z" fill="#fff"/></svg>